<svg width="120" height="32" viewBox="0 0 120 32" fill="none" xmlns="http://www.w3.org/2000/svg">
<rect width="120" height="32" rx="6" fill="#343434"/>
<g clip-path="url(#clip0_2683_2005)">
<path fill-rule="evenodd" clip-rule="evenodd" d="M20 11C20.2652 11 20.5196 11.1054 20.7071 11.2929C20.8946 11.4804 21 11.7348 21 12V15H24C24.2652 15 24.5196 15.1054 24.7071 15.2929C24.8946 15.4804 25 15.7348 25 16C25 16.2652 24.8946 16.5196 24.7071 16.7071C24.5196 16.8946 24.2652 17 24 17H21V20C21 20.2652 20.8946 20.5196 20.7071 20.7071C20.5196 20.8946 20.2652 21 20 21C19.7348 21 19.4804 20.8946 19.2929 20.7071C19.1054 20.5196 19 20.2652 19 20V17H16C15.7348 17 15.4804 16.8946 15.2929 16.7071C15.1054 16.5196 15 16.2652 15 16C15 15.7348 15.1054 15.4804 15.2929 15.2929C15.4804 15.1054 15.7348 15 16 15H19V12C19 11.7348 19.1054 11.4804 19.2929 11.2929C19.4804 11.1054 19.7348 11 20 11Z" fill="white"/>
<path d="M40.343 23.456V19.4936H41.0241C41.2528 19.3113 41.4666 19.0545 41.6655 18.723C41.8643 18.3916 42.0334 17.9375 42.1726 17.3608C42.3118 16.7841 42.4079 16.0384 42.4609 15.1236L42.7294 10.8182H49.2372V19.4936H50.3707V23.446H48.6009V21H42.1129V23.456H40.343ZM43.1719 19.4936H47.4673V12.3643H44.3899L44.2308 15.1236C44.1877 15.8163 44.1181 16.4361 44.022 16.983C43.9259 17.5298 43.8049 18.0121 43.6591 18.4297C43.5133 18.844 43.3509 19.1986 43.1719 19.4936ZM55.0408 21.1491C54.2951 21.1491 53.6488 20.9851 53.1019 20.657C52.555 20.3288 52.1308 19.8698 51.8292 19.2798C51.5309 18.6899 51.3817 18.0005 51.3817 17.2116C51.3817 16.4228 51.5309 15.7318 51.8292 15.1385C52.1308 14.5452 52.555 14.0845 53.1019 13.7564C53.6488 13.4283 54.2951 13.2642 55.0408 13.2642C55.7866 13.2642 56.4329 13.4283 56.9797 13.7564C57.5266 14.0845 57.9492 14.5452 58.2475 15.1385C58.5491 15.7318 58.6999 16.4228 58.6999 17.2116C58.6999 18.0005 58.5491 18.6899 58.2475 19.2798C57.9492 19.8698 57.5266 20.3288 56.9797 20.657C56.4329 20.9851 55.7866 21.1491 55.0408 21.1491ZM55.0508 19.7074C55.4551 19.7074 55.7932 19.5964 56.065 19.3743C56.3368 19.1489 56.5389 18.8473 56.6715 18.4695C56.8074 18.0916 56.8753 17.6707 56.8753 17.2067C56.8753 16.7393 56.8074 16.3168 56.6715 15.9389C56.5389 15.5578 56.3368 15.2545 56.065 15.0291C55.7932 14.8037 55.4551 14.6911 55.0508 14.6911C54.6365 14.6911 54.2918 14.8037 54.0167 15.0291C53.7449 15.2545 53.5411 15.5578 53.4052 15.9389C53.2726 16.3168 53.2063 16.7393 53.2063 17.2067C53.2063 17.6707 53.2726 18.0916 53.4052 18.4695C53.5411 18.8473 53.7449 19.1489 54.0167 19.3743C54.2918 19.5964 54.6365 19.7074 55.0508 19.7074ZM66.2635 10.5398L66.8899 11.7031C66.6678 11.8954 66.4192 12.0346 66.1441 12.1207C65.8691 12.2069 65.5459 12.2633 65.1747 12.2898C64.8068 12.313 64.3693 12.3295 63.8622 12.3395C63.2921 12.3527 62.8264 12.4605 62.4652 12.6626C62.1039 12.8648 61.8271 13.1714 61.6349 13.5824C61.4427 13.9901 61.3167 14.5104 61.2571 15.1435H61.3416C61.5802 14.6761 61.915 14.3198 62.3459 14.0746C62.7767 13.8293 63.2822 13.7067 63.8622 13.7067C64.4952 13.7067 65.0537 13.8492 65.5376 14.1342C66.0248 14.416 66.4043 14.8253 66.6761 15.3622C66.9512 15.8991 67.0887 16.5488 67.0887 17.3111C67.0887 18.0966 66.9413 18.7777 66.6463 19.3544C66.3513 19.9278 65.932 20.3703 65.3885 20.6818C64.8482 20.9934 64.2069 21.1491 63.4645 21.1491C62.7253 21.1491 62.0824 20.9884 61.5355 20.6669C60.9919 20.3421 60.571 19.8632 60.2727 19.2301C59.9777 18.5937 59.8302 17.8099 59.8302 16.8786V16.1925C59.8302 14.3961 60.165 13.0554 60.8345 12.1705C61.504 11.2855 62.4967 10.8348 63.8125 10.8182C64.2036 10.8116 64.5532 10.8099 64.8615 10.8132C65.173 10.8165 65.4448 10.8016 65.6768 10.7685C65.9088 10.7353 66.1044 10.6591 66.2635 10.5398ZM63.4744 19.7074C63.8423 19.7074 64.1605 19.6129 64.4289 19.424C64.6974 19.2318 64.9029 18.96 65.0454 18.6087C65.1913 18.2573 65.2642 17.8414 65.2642 17.3608C65.2642 16.8868 65.1913 16.4841 65.0454 16.1527C64.8996 15.8179 64.6924 15.5627 64.424 15.3871C64.1555 15.2114 63.8357 15.1236 63.4645 15.1236C63.186 15.1236 62.9358 15.1733 62.7137 15.2727C62.4917 15.3722 62.3028 15.518 62.147 15.7102C61.9912 15.9025 61.8719 16.1361 61.789 16.4112C61.7062 16.6863 61.6614 17.0028 61.6548 17.3608C61.6548 18.08 61.8172 18.6518 62.142 19.076C62.4668 19.4969 62.911 19.7074 63.4744 19.7074ZM70.7334 21.1541C70.2495 21.1541 69.8137 21.0679 69.4259 20.8956C69.0414 20.7199 68.7365 20.4614 68.5111 20.12C68.2891 19.7786 68.178 19.3577 68.178 18.8572C68.178 18.4264 68.2576 18.0701 68.4167 17.7884C68.5758 17.5066 68.7929 17.2812 69.068 17.1122C69.3431 16.9432 69.6529 16.8156 69.9976 16.7294C70.3457 16.6399 70.7053 16.5753 71.0765 16.5355C71.5239 16.4891 71.8868 16.4477 72.1653 16.4112C72.4437 16.3714 72.6458 16.3118 72.7718 16.2322C72.9011 16.1494 72.9657 16.0218 72.9657 15.8494V15.8196C72.9657 15.4451 72.8547 15.1551 72.6326 14.9496C72.4105 14.7441 72.0907 14.6413 71.6731 14.6413C71.2323 14.6413 70.8826 14.7375 70.6241 14.9297C70.3689 15.1219 70.1965 15.349 70.107 15.6108L68.4266 15.3722C68.5592 14.9081 68.7779 14.5204 69.0829 14.2088C69.3878 13.8939 69.7607 13.6586 70.2015 13.5028C70.6423 13.3438 71.1295 13.2642 71.6631 13.2642C72.031 13.2642 72.3973 13.3073 72.7618 13.3935C73.1264 13.4796 73.4595 13.6222 73.7611 13.821C74.0627 14.0166 74.3047 14.2834 74.487 14.6214C74.6726 14.9595 74.7654 15.3821 74.7654 15.8892V21H73.0353V19.951H72.9756C72.8663 20.1631 72.7121 20.362 72.5133 20.5476C72.3177 20.7299 72.0708 20.8774 71.7725 20.9901C71.4775 21.0994 71.1312 21.1541 70.7334 21.1541ZM71.2008 19.8317C71.562 19.8317 71.8752 19.7604 72.1404 19.6179C72.4056 19.4721 72.6094 19.2798 72.7519 19.0412C72.8977 18.8026 72.9707 18.5424 72.9707 18.2607V17.3608C72.9143 17.4072 72.8182 17.4503 72.6823 17.4901C72.5497 17.5298 72.4006 17.5646 72.2349 17.5945C72.0691 17.6243 71.9051 17.6508 71.7427 17.674C71.5803 17.6972 71.4394 17.7171 71.3201 17.7337C71.0516 17.7701 70.8113 17.8298 70.5992 17.9126C70.3871 17.9955 70.2197 18.1115 70.0971 18.2607C69.9744 18.4065 69.9131 18.5954 69.9131 18.8274C69.9131 19.1589 70.0341 19.4091 70.2761 19.5781C70.518 19.7472 70.8262 19.8317 71.2008 19.8317ZM76.4911 21V13.3636H79.6977C80.6026 13.3636 81.3168 13.5443 81.8405 13.9055C82.3675 14.2668 82.631 14.7706 82.631 15.4169C82.631 15.8445 82.4818 16.1941 82.1835 16.4659C81.8886 16.7344 81.4859 16.915 80.9754 17.0078C81.3765 17.041 81.7278 17.142 82.0294 17.3111C82.3343 17.4801 82.573 17.7022 82.7453 17.9773C82.9177 18.2524 83.0038 18.5689 83.0038 18.9268C83.0038 19.3478 82.8928 19.714 82.6707 20.0256C82.452 20.3338 82.1322 20.5741 81.7112 20.7464C81.2936 20.9155 80.7865 21 80.1899 21H76.4911ZM78.1764 19.5831H80.1899C80.5214 19.5831 80.7815 19.5052 80.9705 19.3494C81.1594 19.1903 81.2538 18.9749 81.2538 18.7031C81.2538 18.3883 81.1594 18.1413 80.9705 17.9624C80.7815 17.7801 80.5214 17.6889 80.1899 17.6889H78.1764V19.5831ZM78.1764 16.5256H79.7325C79.9778 16.5256 80.1883 16.4908 80.3639 16.4212C80.5396 16.3482 80.6738 16.2472 80.7666 16.1179C80.8594 15.9853 80.9058 15.8279 80.9058 15.6456C80.9058 15.3838 80.7981 15.1783 80.5827 15.0291C80.3706 14.88 80.0756 14.8054 79.6977 14.8054H78.1764V16.5256ZM86.1402 18.5639L89.1977 13.3636H91.0472V21H89.3071V15.7947L86.2595 21H84.4051V13.3636H86.1402V18.5639ZM91.9562 14.8402V13.3636H98.638V14.8402H96.1672V21H94.4271V14.8402H91.9562ZM101.205 15.8494H103.457C104.432 15.8494 105.186 16.0864 105.719 16.5604C106.253 17.0343 106.521 17.6558 106.525 18.4247C106.521 18.9252 106.399 19.3693 106.157 19.7571C105.918 20.1449 105.57 20.4498 105.113 20.6719C104.659 20.8906 104.107 21 103.457 21H99.9871V13.3636H101.722V19.5234H103.457C103.848 19.5234 104.17 19.424 104.422 19.2251C104.674 19.023 104.8 18.7644 104.8 18.4496C104.8 18.1181 104.674 17.848 104.422 17.6392C104.17 17.4304 103.848 17.326 103.457 17.326H101.205V15.8494Z" fill="#F6F8F9"/>
</g>
<defs>
<clipPath id="clip0_2683_2005">
<rect width="100" height="24" fill="white" transform="translate(8 4)"/>
</clipPath>
</defs>
</svg>
