<svg width="160" height="32" viewBox="0 0 160 32" fill="none" xmlns="http://www.w3.org/2000/svg">
<rect x="0.5" y="0.5" width="159" height="31" rx="5.5" fill="white"/>
<rect x="0.5" y="0.5" width="159" height="31" rx="5.5" stroke="#DDE2E4"/>
<g clip-path="url(#clip0_2683_1819)">
<path fill-rule="evenodd" clip-rule="evenodd" d="M20 15C20.7956 15 21.5587 14.6839 22.1213 14.1213C22.6839 13.5587 23 12.7956 23 12C23 11.2044 22.6839 10.4413 22.1213 9.87868C21.5587 9.31607 20.7956 9 20 9C19.2044 9 18.4413 9.31607 17.8787 9.87868C17.3161 10.4413 17 11.2044 17 12C17 12.7956 17.3161 13.5587 17.8787 14.1213C18.4413 14.6839 19.2044 15 20 15ZM13 24C13 23.0807 13.1811 22.1705 13.5328 21.3212C13.8846 20.4719 14.4002 19.7003 15.0503 19.0503C15.7003 18.4002 16.4719 17.8846 17.3212 17.5328C18.1705 17.1811 19.0807 17 20 17C20.9193 17 21.8295 17.1811 22.6788 17.5328C23.5281 17.8846 24.2997 18.4002 24.9497 19.0503C25.5998 19.7003 26.1154 20.4719 26.4672 21.3212C26.8189 22.1705 27 23.0807 27 24H13Z" fill="#B0BABF"/>
<path d="M41.6506 21H40.358L44.0966 10.8182H45.3693L49.108 21H47.8153L44.7727 12.429H44.6932L41.6506 21ZM42.1278 17.0227H47.3381V18.1165H42.1278V17.0227ZM49.6355 23.1875V19.9062H50.2718C50.4276 19.7438 50.5618 19.5682 50.6745 19.3793C50.7872 19.1903 50.885 18.9666 50.9678 18.7081C51.054 18.4463 51.1269 18.1281 51.1866 17.7536C51.2463 17.3757 51.2993 16.92 51.3457 16.3864L51.6042 13.3636H56.4565V19.9062H57.6298V23.1875H56.4565V21H50.8088V23.1875H49.6355ZM51.6042 19.9062H55.2832V14.4574H52.698L52.4991 16.3864C52.4162 17.1851 52.3135 17.8828 52.1909 18.4794C52.0682 19.076 51.8727 19.5516 51.6042 19.9062ZM63.2793 19.4091L65.944 13.3636H67.0577L63.7565 21H62.802L59.5605 13.3636H60.6543L63.2793 19.4091ZM60.2764 13.3636V21H59.1031V13.3636H60.2764ZM66.2821 21V13.3636H67.4554V21H66.2821ZM70.6924 19.2699L74.3714 13.3636H75.7237V21H74.5504V15.0938L70.8913 21H69.5191V13.3636H70.6924V19.2699ZM82.8994 16.6449V17.7386H78.6835V16.6449H82.8994ZM78.9619 13.3636V21H77.7886V13.3636H78.9619ZM83.7943 13.3636V21H82.621V13.3636H83.7943ZM87.0264 19.2699L90.7054 13.3636H92.0576V21H90.8843V15.0938L87.2252 21H85.8531V13.3636H87.0264V19.2699ZM97.2249 21.1591C96.509 21.1591 95.8925 20.9901 95.3754 20.652C94.8584 20.3139 94.4607 19.8482 94.1823 19.255C93.9038 18.6617 93.7646 17.9839 93.7646 17.2216C93.7646 16.446 93.9072 15.7616 94.1922 15.1683C94.4806 14.5717 94.8816 14.1061 95.3953 13.7713C95.9124 13.4332 96.5156 13.2642 97.205 13.2642C97.7419 13.2642 98.2258 13.3636 98.6567 13.5625C99.0876 13.7614 99.4405 14.0398 99.7156 14.3977C99.9907 14.7557 100.161 15.1733 100.228 15.6506H99.0544C98.9649 15.3026 98.7661 14.9943 98.4578 14.7259C98.1529 14.4541 97.7419 14.3182 97.2249 14.3182C96.7675 14.3182 96.3664 14.4375 96.0217 14.6761C95.6804 14.9115 95.4136 15.2446 95.2213 15.6754C95.0324 16.103 94.9379 16.6051 94.9379 17.1818C94.9379 17.7718 95.0307 18.2855 95.2163 18.723C95.4053 19.1605 95.6704 19.5002 96.0118 19.7422C96.3565 19.9841 96.7609 20.1051 97.2249 20.1051C97.5298 20.1051 97.8065 20.0521 98.0551 19.946C98.3037 19.84 98.5142 19.6875 98.6865 19.4886C98.8589 19.2898 98.9815 19.0511 99.0544 18.7727H100.228C100.161 19.2235 99.9974 19.6295 99.7355 19.9908C99.477 20.3487 99.134 20.6338 98.7064 20.8459C98.2822 21.0547 97.7883 21.1591 97.2249 21.1591ZM101.257 14.4574V13.3636H107.462V14.4574H104.956V21H103.783V14.4574H101.257ZM109.089 23.8636V13.3636H110.223V14.5767H110.362C110.448 14.4441 110.568 14.2751 110.72 14.0696C110.876 13.8608 111.098 13.6752 111.386 13.5128C111.678 13.3471 112.072 13.2642 112.569 13.2642C113.212 13.2642 113.779 13.425 114.27 13.7464C114.76 14.0679 115.143 14.5237 115.418 15.1136C115.693 15.7036 115.831 16.3996 115.831 17.2017C115.831 18.0104 115.693 18.7114 115.418 19.3047C115.143 19.8946 114.762 20.352 114.275 20.6768C113.788 20.9983 113.226 21.1591 112.589 21.1591C112.099 21.1591 111.706 21.0779 111.411 20.9155C111.116 20.7498 110.889 20.5625 110.73 20.3537C110.571 20.1416 110.448 19.9659 110.362 19.8267H110.263V23.8636H109.089ZM110.243 17.1818C110.243 17.7585 110.327 18.2673 110.496 18.7081C110.665 19.1456 110.912 19.4886 111.237 19.7372C111.562 19.9825 111.96 20.1051 112.43 20.1051C112.921 20.1051 113.33 19.9759 113.658 19.7173C113.99 19.4555 114.238 19.1042 114.404 18.6634C114.573 18.2192 114.658 17.7254 114.658 17.1818C114.658 16.6449 114.575 16.161 114.409 15.7301C114.247 15.2959 114 14.9529 113.668 14.701C113.34 14.4458 112.927 14.3182 112.43 14.3182C111.953 14.3182 111.552 14.4392 111.227 14.6811C110.902 14.9197 110.657 15.2545 110.491 15.6854C110.326 16.1129 110.243 16.6117 110.243 17.1818ZM119.784 21.179C119.3 21.179 118.861 21.0878 118.466 20.9055C118.072 20.7199 117.759 20.4531 117.527 20.1051C117.295 19.7538 117.179 19.3295 117.179 18.8324C117.179 18.3949 117.265 18.0402 117.437 17.7685C117.61 17.4934 117.84 17.2779 118.128 17.1222C118.417 16.9664 118.735 16.8504 119.083 16.7741C119.434 16.6946 119.787 16.6316 120.142 16.5852C120.606 16.5256 120.982 16.4808 121.27 16.451C121.562 16.4179 121.774 16.3632 121.907 16.2869C122.043 16.2107 122.11 16.0781 122.11 15.8892V15.8494C122.11 15.3589 121.976 14.9777 121.708 14.706C121.443 14.4342 121.04 14.2983 120.5 14.2983C119.94 14.2983 119.5 14.4209 119.182 14.6662C118.864 14.9115 118.64 15.1733 118.511 15.4517L117.397 15.054C117.596 14.59 117.861 14.2287 118.193 13.9702C118.528 13.7083 118.892 13.526 119.287 13.4233C119.684 13.3172 120.075 13.2642 120.46 13.2642C120.705 13.2642 120.987 13.294 121.305 13.3537C121.627 13.41 121.936 13.5277 122.235 13.7067C122.536 13.8857 122.787 14.1558 122.985 14.517C123.184 14.8783 123.284 15.3622 123.284 15.9688V21H122.11V19.9659H122.051C121.971 20.1316 121.839 20.3089 121.653 20.4979C121.467 20.6868 121.221 20.8475 120.912 20.9801C120.604 21.1127 120.228 21.179 119.784 21.179ZM119.963 20.125C120.427 20.125 120.818 20.0339 121.136 19.8516C121.458 19.6693 121.699 19.4339 121.862 19.1456C122.028 18.8572 122.11 18.554 122.11 18.2358V17.1619C122.061 17.2216 121.951 17.2763 121.782 17.326C121.617 17.3724 121.424 17.4138 121.206 17.4503C120.99 17.4834 120.78 17.5133 120.574 17.5398C120.372 17.563 120.208 17.5829 120.082 17.5994C119.777 17.6392 119.492 17.7038 119.227 17.7933C118.965 17.8795 118.753 18.0104 118.591 18.1861C118.432 18.3584 118.352 18.5937 118.352 18.892C118.352 19.2997 118.503 19.608 118.804 19.8168C119.109 20.0223 119.495 20.125 119.963 20.125ZM124.302 14.4574V13.3636H130.507V14.4574H128.001V21H126.828V14.4574H124.302ZM134.84 21.1591C134.151 21.1591 133.546 20.995 133.025 20.6669C132.508 20.3388 132.104 19.8797 131.812 19.2898C131.524 18.6998 131.38 18.0104 131.38 17.2216C131.38 16.4261 131.524 15.7318 131.812 15.1385C132.104 14.5452 132.508 14.0845 133.025 13.7564C133.546 13.4283 134.151 13.2642 134.84 13.2642C135.529 13.2642 136.133 13.4283 136.65 13.7564C137.17 14.0845 137.574 14.5452 137.863 15.1385C138.154 15.7318 138.3 16.4261 138.3 17.2216C138.3 18.0104 138.154 18.6998 137.863 19.2898C137.574 19.8797 137.17 20.3388 136.65 20.6669C136.133 20.995 135.529 21.1591 134.84 21.1591ZM134.84 20.1051C135.364 20.1051 135.795 19.9709 136.133 19.7024C136.471 19.4339 136.721 19.081 136.883 18.6435C137.046 18.206 137.127 17.732 137.127 17.2216C137.127 16.7112 137.046 16.2356 136.883 15.7947C136.721 15.3539 136.471 14.9976 136.133 14.7259C135.795 14.4541 135.364 14.3182 134.84 14.3182C134.316 14.3182 133.885 14.4541 133.547 14.7259C133.209 14.9976 132.959 15.3539 132.797 15.7947C132.634 16.2356 132.553 16.7112 132.553 17.2216C132.553 17.732 132.634 18.206 132.797 18.6435C132.959 19.081 133.209 19.4339 133.547 19.7024C133.885 19.9709 134.316 20.1051 134.84 20.1051ZM140.007 23.8636V13.3636H141.141V14.5767H141.28C141.366 14.4441 141.485 14.2751 141.638 14.0696C141.794 13.8608 142.016 13.6752 142.304 13.5128C142.596 13.3471 142.99 13.2642 143.487 13.2642C144.13 13.2642 144.697 13.425 145.188 13.7464C145.678 14.0679 146.061 14.5237 146.336 15.1136C146.611 15.7036 146.749 16.3996 146.749 17.2017C146.749 18.0104 146.611 18.7114 146.336 19.3047C146.061 19.8946 145.68 20.352 145.193 20.6768C144.705 20.9983 144.144 21.1591 143.507 21.1591C143.017 21.1591 142.624 21.0779 142.329 20.9155C142.034 20.7498 141.807 20.5625 141.648 20.3537C141.489 20.1416 141.366 19.9659 141.28 19.8267H141.181V23.8636H140.007ZM141.161 17.1818C141.161 17.7585 141.245 18.2673 141.414 18.7081C141.583 19.1456 141.83 19.4886 142.155 19.7372C142.48 19.9825 142.878 20.1051 143.348 20.1051C143.839 20.1051 144.248 19.9759 144.576 19.7173C144.908 19.4555 145.156 19.1042 145.322 18.6634C145.491 18.2192 145.575 17.7254 145.575 17.1818C145.575 16.6449 145.493 16.161 145.327 15.7301C145.164 15.2959 144.918 14.9529 144.586 14.701C144.258 14.4458 143.845 14.3182 143.348 14.3182C142.871 14.3182 142.47 14.4392 142.145 14.6811C141.82 14.9197 141.575 15.2545 141.409 15.6854C141.244 16.1129 141.161 16.6117 141.161 17.1818Z" fill="#252C32"/>
</g>
<defs>
<clipPath id="clip0_2683_1819">
<rect width="140" height="24" fill="white" transform="translate(8 4)"/>
</clipPath>
</defs>
</svg>
