<svg width="165" height="32" viewBox="0 0 165 32" fill="none" xmlns="http://www.w3.org/2000/svg">
<rect x="0.5" y="0.5" width="164" height="31" rx="5.5" fill="white"/>
<rect x="0.5" y="0.5" width="164" height="31" rx="5.5" stroke="#DDE2E4"/>
<g clip-path="url(#clip0_2689_2456)">
<path fill-rule="evenodd" clip-rule="evenodd" d="M13 9C13 8.73478 13.1054 8.48043 13.2929 8.29289C13.4804 8.10536 13.7348 8 14 8H26C26.2652 8 26.5196 8.10536 26.7071 8.29289C26.8946 8.48043 27 8.73478 27 9V12C26.9999 12.2652 26.8946 12.5195 26.707 12.707L22 17.414V21C21.9999 21.2652 21.8945 21.5195 21.707 21.707L19.707 23.707C19.5671 23.8468 19.389 23.942 19.195 23.9806C19.0011 24.0192 18.8 23.9993 18.6173 23.9237C18.4346 23.848 18.2785 23.7199 18.1686 23.5555C18.0587 23.391 18 23.1978 18 23V17.414L13.293 12.707C13.1055 12.5195 13.0001 12.2652 13 12V9Z" fill="#5B6871"/>
<path d="M42.2039 21V10.8182H45.7635C46.4728 10.8182 47.0578 10.9408 47.5185 11.1861C47.9792 11.428 48.3222 11.7545 48.5476 12.1655C48.773 12.5732 48.8857 13.0256 48.8857 13.5227C48.8857 13.9602 48.8078 14.3215 48.652 14.6065C48.4996 14.8916 48.2974 15.117 48.0455 15.2827C47.7969 15.4484 47.5268 15.571 47.2351 15.6506V15.75C47.5467 15.7699 47.8599 15.8793 48.1747 16.0781C48.4896 16.277 48.7531 16.562 48.9652 16.9332C49.1773 17.3045 49.2834 17.7585 49.2834 18.2955C49.2834 18.8059 49.1674 19.2649 48.9354 19.6726C48.7034 20.0803 48.3371 20.4034 47.8367 20.642C47.3362 20.8807 46.6849 21 45.8828 21H42.2039ZM43.4368 19.9062H45.8828C46.6882 19.9062 47.26 19.7505 47.598 19.4389C47.9394 19.1241 48.1101 18.7429 48.1101 18.2955C48.1101 17.9508 48.0223 17.6326 47.8466 17.3409C47.671 17.0459 47.4207 16.8106 47.0959 16.6349C46.7711 16.456 46.3866 16.3665 45.9425 16.3665H43.4368V19.9062ZM43.4368 15.2926H45.7238C46.095 15.2926 46.4297 15.2197 46.728 15.0739C47.0296 14.928 47.2683 14.7225 47.4439 14.4574C47.6229 14.1922 47.7124 13.8807 47.7124 13.5227C47.7124 13.0753 47.5566 12.6958 47.2451 12.3842C46.9335 12.0694 46.4397 11.9119 45.7635 11.9119H43.4368V15.2926ZM52.0804 16.1278H54.2679C55.1628 16.1278 55.8473 16.3549 56.3212 16.8089C56.7952 17.263 57.0322 17.8381 57.0322 18.5341C57.0322 18.9915 56.9261 19.4074 56.714 19.782C56.5018 20.1532 56.1903 20.4498 55.7793 20.6719C55.3683 20.8906 54.8645 21 54.2679 21H51.0662V13.3636H52.2395V19.9062H54.2679C54.732 19.9062 55.1131 19.7836 55.4114 19.5384C55.7097 19.2931 55.8589 18.9782 55.8589 18.5938C55.8589 18.1894 55.7097 17.8596 55.4114 17.6044C55.1131 17.3492 54.732 17.2216 54.2679 17.2216H52.0804V16.1278ZM58.2452 21V13.3636H59.4185V21H58.2452ZM67.1499 10.5L67.7464 11.2159C67.5144 11.4413 67.246 11.5987 66.941 11.6882C66.6361 11.7777 66.2914 11.8324 65.907 11.8523C65.5225 11.8722 65.0949 11.892 64.6243 11.9119C64.094 11.9318 63.6548 12.0611 63.3068 12.2997C62.9588 12.5384 62.6903 12.883 62.5014 13.3338C62.3125 13.7846 62.1915 14.3381 62.1385 14.9943H62.2379C62.4964 14.517 62.8544 14.1657 63.3118 13.9403C63.7692 13.715 64.2597 13.6023 64.7834 13.6023C65.38 13.6023 65.9169 13.7415 66.3942 14.0199C66.8714 14.2983 67.2493 14.7109 67.5277 15.2578C67.8061 15.8047 67.9453 16.4792 67.9453 17.2812C67.9453 18.08 67.8028 18.7694 67.5178 19.3494C67.236 19.9295 66.84 20.3769 66.3295 20.6918C65.8224 21.0033 65.2275 21.1591 64.5447 21.1591C63.862 21.1591 63.2637 20.9983 62.75 20.6768C62.2363 20.352 61.8369 19.8714 61.5518 19.2351C61.2668 18.5954 61.1243 17.8049 61.1243 16.8636V16.0483C61.1243 14.348 61.4126 13.0587 61.9893 12.1804C62.5694 11.3021 63.441 10.848 64.6044 10.8182C65.0154 10.8049 65.3816 10.8016 65.7031 10.8082C66.0246 10.8149 66.3047 10.8 66.5433 10.7635C66.782 10.727 66.9841 10.6392 67.1499 10.5ZM64.5447 20.1051C65.0054 20.1051 65.4015 19.9891 65.733 19.7571C66.0677 19.5251 66.3246 19.1986 66.5035 18.7777C66.6825 18.3535 66.772 17.8546 66.772 17.2812C66.772 16.7244 66.6809 16.2505 66.4986 15.8594C66.3196 15.4683 66.0627 15.17 65.728 14.9645C65.3932 14.759 64.9922 14.6562 64.5249 14.6562C64.1835 14.6562 63.8769 14.7143 63.6051 14.8303C63.3333 14.9463 63.1013 15.117 62.9091 15.3423C62.7169 15.5677 62.5677 15.8428 62.4616 16.1676C62.3589 16.4924 62.3042 16.8636 62.2976 17.2812C62.2976 18.1364 62.4981 18.8208 62.8991 19.3345C63.3002 19.8482 63.8487 20.1051 64.5447 20.1051ZM69.6561 23.8636V13.3636H70.7896V14.5767H70.9288C71.015 14.4441 71.1343 14.2751 71.2867 14.0696C71.4425 13.8608 71.6646 13.6752 71.9529 13.5128C72.2446 13.3471 72.639 13.2642 73.1362 13.2642C73.7792 13.2642 74.3459 13.425 74.8365 13.7464C75.327 14.0679 75.7098 14.5237 75.9849 15.1136C76.26 15.7036 76.3975 16.3996 76.3975 17.2017C76.3975 18.0104 76.26 18.7114 75.9849 19.3047C75.7098 19.8946 75.3286 20.352 74.8414 20.6768C74.3542 20.9983 73.7924 21.1591 73.1561 21.1591C72.6655 21.1591 72.2728 21.0779 71.9778 20.9155C71.6828 20.7498 71.4558 20.5625 71.2967 20.3537C71.1376 20.1416 71.015 19.9659 70.9288 19.8267H70.8293V23.8636H69.6561ZM70.8095 17.1818C70.8095 17.7585 70.894 18.2673 71.063 18.7081C71.232 19.1456 71.479 19.4886 71.8038 19.7372C72.1286 19.9825 72.5263 20.1051 72.997 20.1051C73.4875 20.1051 73.8968 19.9759 74.2249 19.7173C74.5564 19.4555 74.805 19.1042 74.9707 18.6634C75.1397 18.2192 75.2242 17.7254 75.2242 17.1818C75.2242 16.6449 75.1414 16.161 74.9757 15.7301C74.8133 15.2959 74.5663 14.9529 74.2349 14.701C73.9068 14.4458 73.4941 14.3182 72.997 14.3182C72.5197 14.3182 72.1186 14.4392 71.7938 14.6811C71.469 14.9197 71.2238 15.2545 71.058 15.6854C70.8923 16.1129 70.8095 16.6117 70.8095 17.1818ZM80.3505 21.179C79.8666 21.179 79.4274 21.0878 79.033 20.9055C78.6386 20.7199 78.3254 20.4531 78.0934 20.1051C77.8614 19.7538 77.7454 19.3295 77.7454 18.8324C77.7454 18.3949 77.8315 18.0402 78.0039 17.7685C78.1762 17.4934 78.4066 17.2779 78.6949 17.1222C78.9833 16.9664 79.3015 16.8504 79.6495 16.7741C80.0008 16.6946 80.3538 16.6316 80.7084 16.5852C81.1724 16.5256 81.5486 16.4808 81.837 16.451C82.1286 16.4179 82.3408 16.3632 82.4733 16.2869C82.6092 16.2107 82.6772 16.0781 82.6772 15.8892V15.8494C82.6772 15.3589 82.5429 14.9777 82.2745 14.706C82.0093 14.4342 81.6066 14.2983 81.0664 14.2983C80.5062 14.2983 80.0671 14.4209 79.7489 14.6662C79.4307 14.9115 79.207 15.1733 79.0777 15.4517L77.9641 15.054C78.163 14.59 78.4281 14.2287 78.7596 13.9702C79.0943 13.7083 79.4589 13.526 79.8533 13.4233C80.251 13.3172 80.6421 13.2642 81.0266 13.2642C81.2719 13.2642 81.5536 13.294 81.8718 13.3537C82.1933 13.41 82.5032 13.5277 82.8015 13.7067C83.1031 13.8857 83.3533 14.1558 83.5522 14.517C83.751 14.8783 83.8505 15.3622 83.8505 15.9688V21H82.6772V19.9659H82.6175C82.538 20.1316 82.4054 20.3089 82.2198 20.4979C82.0342 20.6868 81.7873 20.8475 81.479 20.9801C81.1708 21.1127 80.7946 21.179 80.3505 21.179ZM80.5294 20.125C80.9935 20.125 81.3846 20.0339 81.7027 19.8516C82.0242 19.6693 82.2662 19.4339 82.4286 19.1456C82.5943 18.8572 82.6772 18.554 82.6772 18.2358V17.1619C82.6275 17.2216 82.5181 17.2763 82.349 17.326C82.1833 17.3724 81.9911 17.4138 81.7723 17.4503C81.5569 17.4834 81.3464 17.5133 81.1409 17.5398C80.9388 17.563 80.7747 17.5829 80.6488 17.5994C80.3438 17.6392 80.0588 17.7038 79.7936 17.7933C79.5318 17.8795 79.3197 18.0104 79.1573 18.1861C78.9982 18.3584 78.9186 18.5937 78.9186 18.892C78.9186 19.2997 79.0695 19.608 79.3711 19.8168C79.676 20.0223 80.0621 20.125 80.5294 20.125ZM84.8689 14.4574V13.3636H91.0735V14.4574H88.5678V21H87.3945V14.4574H84.8689ZM93.7151 16.1278H95.9026C96.7975 16.1278 97.4819 16.3549 97.9559 16.8089C98.4299 17.263 98.6668 17.8381 98.6668 18.5341C98.6668 18.9915 98.5608 19.4074 98.3487 19.782C98.1365 20.1532 97.825 20.4498 97.414 20.6719C97.003 20.8906 96.4992 21 95.9026 21H92.7009V13.3636H93.8742V19.9062H95.9026C96.3666 19.9062 96.7478 19.7836 97.0461 19.5384C97.3444 19.2931 97.4935 18.9782 97.4935 18.5938C97.4935 18.1894 97.3444 17.8596 97.0461 17.6044C96.7478 17.3492 96.3666 17.2216 95.9026 17.2216H93.7151V16.1278ZM104.222 21V13.3636H110.228V21H109.055V14.4574H105.396V21H104.222ZM115.489 21.1591C114.753 21.1591 114.118 20.9967 113.584 20.6719C113.054 20.3438 112.645 19.8864 112.356 19.2997C112.071 18.7098 111.929 18.0237 111.929 17.2415C111.929 16.4593 112.071 15.7699 112.356 15.1733C112.645 14.5734 113.046 14.1061 113.56 13.7713C114.077 13.4332 114.68 13.2642 115.369 13.2642C115.767 13.2642 116.16 13.3305 116.547 13.4631C116.935 13.5956 117.288 13.8111 117.606 14.1094C117.925 14.4044 118.178 14.7955 118.367 15.2827C118.556 15.7699 118.65 16.3698 118.65 17.0824V17.5795H112.764V16.5653H117.457C117.457 16.1345 117.371 15.75 117.199 15.4119C117.03 15.0739 116.788 14.8071 116.473 14.6115C116.161 14.416 115.793 14.3182 115.369 14.3182C114.902 14.3182 114.498 14.4342 114.156 14.6662C113.818 14.8949 113.558 15.1932 113.376 15.5611C113.193 15.929 113.102 16.3234 113.102 16.7443V17.4205C113.102 17.9972 113.202 18.486 113.4 18.8871C113.603 19.2848 113.883 19.5881 114.241 19.7969C114.599 20.0024 115.015 20.1051 115.489 20.1051C115.797 20.1051 116.075 20.062 116.324 19.9759C116.576 19.8864 116.793 19.7538 116.975 19.5781C117.157 19.3991 117.298 19.1771 117.398 18.9119L118.531 19.2301C118.412 19.6146 118.211 19.9527 117.93 20.2443C117.648 20.5327 117.3 20.758 116.886 20.9205C116.471 21.0795 116.006 21.1591 115.489 21.1591ZM120.351 23.8636V13.3636H121.485V14.5767H121.624C121.71 14.4441 121.829 14.2751 121.982 14.0696C122.138 13.8608 122.36 13.6752 122.648 13.5128C122.94 13.3471 123.334 13.2642 123.831 13.2642C124.474 13.2642 125.041 13.425 125.532 13.7464C126.022 14.0679 126.405 14.5237 126.68 15.1136C126.955 15.7036 127.093 16.3996 127.093 17.2017C127.093 18.0104 126.955 18.7114 126.68 19.3047C126.405 19.8946 126.024 20.352 125.537 20.6768C125.049 20.9983 124.488 21.1591 123.851 21.1591C123.361 21.1591 122.968 21.0779 122.673 20.9155C122.378 20.7498 122.151 20.5625 121.992 20.3537C121.833 20.1416 121.71 19.9659 121.624 19.8267H121.525V23.8636H120.351ZM121.505 17.1818C121.505 17.7585 121.589 18.2673 121.758 18.7081C121.927 19.1456 122.174 19.4886 122.499 19.7372C122.824 19.9825 123.222 20.1051 123.692 20.1051C124.183 20.1051 124.592 19.9759 124.92 19.7173C125.252 19.4555 125.5 19.1042 125.666 18.6634C125.835 18.2192 125.919 17.7254 125.919 17.1818C125.919 16.6449 125.837 16.161 125.671 15.7301C125.508 15.2959 125.262 14.9529 124.93 14.701C124.602 14.4458 124.189 14.3182 123.692 14.3182C123.215 14.3182 122.814 14.4392 122.489 14.6811C122.164 14.9197 121.919 15.2545 121.753 15.6854C121.588 16.1129 121.505 16.6117 121.505 17.1818ZM129.972 19.2699L133.651 13.3636H135.003V21H133.83V15.0938L130.171 21H128.799V13.3636H129.972V19.2699ZM140.17 21.1591C139.481 21.1591 138.876 20.995 138.356 20.6669C137.839 20.3388 137.434 19.8797 137.143 19.2898C136.854 18.6998 136.71 18.0104 136.71 17.2216C136.71 16.4261 136.854 15.7318 137.143 15.1385C137.434 14.5452 137.839 14.0845 138.356 13.7564C138.876 13.4283 139.481 13.2642 140.17 13.2642C140.86 13.2642 141.463 13.4283 141.98 13.7564C142.5 14.0845 142.905 14.5452 143.193 15.1385C143.485 15.7318 143.631 16.4261 143.631 17.2216C143.631 18.0104 143.485 18.6998 143.193 19.2898C142.905 19.8797 142.5 20.3388 141.98 20.6669C141.463 20.995 140.86 21.1591 140.17 21.1591ZM140.17 20.1051C140.694 20.1051 141.125 19.9709 141.463 19.7024C141.801 19.4339 142.051 19.081 142.214 18.6435C142.376 18.206 142.457 17.732 142.457 17.2216C142.457 16.7112 142.376 16.2356 142.214 15.7947C142.051 15.3539 141.801 14.9976 141.463 14.7259C141.125 14.4541 140.694 14.3182 140.17 14.3182C139.647 14.3182 139.216 14.4541 138.878 14.7259C138.54 14.9976 138.289 15.3539 138.127 15.7947C137.965 16.2356 137.883 16.7112 137.883 17.2216C137.883 17.732 137.965 18.206 138.127 18.6435C138.289 19.081 138.54 19.4339 138.878 19.7024C139.216 19.9709 139.647 20.1051 140.17 20.1051ZM144.522 23.1875V19.9062H145.159C145.314 19.7438 145.449 19.5682 145.561 19.3793C145.674 19.1903 145.772 18.9666 145.855 18.7081C145.941 18.4463 146.014 18.1281 146.073 17.7536C146.133 17.3757 146.186 16.92 146.232 16.3864L146.491 13.3636H151.343V19.9062H152.517V23.1875H151.343V21H145.695V23.1875H144.522ZM146.491 19.9062H150.17V14.4574H147.585L147.386 16.3864C147.303 17.1851 147.2 17.8828 147.078 18.4794C146.955 19.076 146.759 19.5516 146.491 19.9062Z" fill="#252C32"/>
</g>
<defs>
<clipPath id="clip0_2689_2456">
<rect width="145" height="24" fill="white" transform="translate(8 4)"/>
</clipPath>
</defs>
</svg>
