<svg width="129" height="128" viewBox="0 0 129 128" fill="none" xmlns="http://www.w3.org/2000/svg">
<path d="M36.9746 38.9766L44.9746 42.9766H52.9746" stroke="#B0BABF"/>
<path d="M90.9746 40.9771L88.3663 42.2812C87.4711 42.7287 86.4408 42.8244 85.4785 42.5493L74.0519 39.2847C73.3372 39.0804 72.5975 38.9766 71.8542 38.9766H59.2561C57.9391 38.9766 56.6424 39.3019 55.4812 39.9233C54.32 40.5448 53.3302 41.4432 52.5997 42.5391L42.9746 56.9771H52.8339C53.4924 56.9771 54.1407 56.8146 54.7213 56.5039C55.3019 56.1932 55.7968 55.7437 56.1621 55.1958L57.7871 52.7583C58.1524 52.2104 58.6473 51.7609 59.2279 51.4502C59.8085 51.1395 60.4568 50.9771 61.1153 50.9771H63.7635C64.5532 50.977 65.3252 51.2109 65.9823 51.6489L96.5768 72.0449C97.1426 72.4221 97.6255 72.9108 97.996 73.481C98.3665 74.0511 98.6168 74.6911 98.7316 75.3613C98.8464 76.0316 98.8233 76.7179 98.6637 77.3789C98.5041 78.0399 98.2113 78.6616 97.8033 79.2056L97.6803 79.3696C96.9381 80.3593 95.8554 81.0385 94.6415 81.2764C93.4275 81.5142 92.1685 81.2936 91.1078 80.6572L74.9746 70.9771" stroke="#B0BABF" stroke-width="1.00157" stroke-linecap="round" stroke-linejoin="round"/>
<path d="M96.9746 70.9766L104.975 60.9766" stroke="#B0BABF"/>
<path d="M30.9746 70.9766L22.9746 62.9766" stroke="#B0BABF"/>
<path d="M42.9599 31L18.9852 68.9761L5 60.9814" stroke="#B0BABF" stroke-linecap="round" stroke-linejoin="round"/>
<path d="M46.999 69.6042L47.2116 69.7443C49.0334 70.9359 49.5346 73.3608 48.3353 75.1808L40.4063 87.214C39.2071 89.034 36.775 89.5399 34.9532 88.3483L34.7406 88.2082C32.9189 87.0162 32.4177 84.5917 33.6169 82.7717L41.5459 70.7384C42.7452 68.9184 45.1772 68.4122 46.999 69.6042Z" stroke="#B0BABF" stroke-linecap="round" stroke-linejoin="round"/>
<path d="M51.5837 77.4223C53.4379 78.6355 53.9538 81.105 52.7404 82.9594L47.2647 91.3271C46.0512 93.1811 43.5816 93.697 41.7273 92.4838C39.8731 91.2702 39.3572 88.8006 40.5706 86.9462L46.0463 78.579C47.2598 76.7246 49.7294 76.2087 51.5837 77.4223Z" stroke="#B0BABF" stroke-linecap="round" stroke-linejoin="round"/>
<path d="M56.9176 83.6026C58.7776 84.807 59.3082 87.2758 58.1071 89.1382L54.5432 94.6646C53.3421 96.527 50.8778 97.0569 49.0177 95.8521C47.1577 94.6477 46.6272 92.1788 47.8282 90.3164L51.3922 84.7901C52.5932 82.9277 55.0575 82.3978 56.9176 83.6026Z" stroke="#B0BABF" stroke-linecap="round" stroke-linejoin="round"/>
<path d="M37.5602 69.548C39.4202 70.7524 39.9507 73.2213 38.7497 75.0837L35.1857 80.61C33.9847 82.4724 31.5204 83.0018 29.6603 81.797C27.8003 80.5926 27.2698 78.1238 28.4708 76.2614L32.0348 70.735C33.2358 68.8726 35.7001 68.3432 37.5602 69.548Z" stroke="#B0BABF" stroke-linecap="round" stroke-linejoin="round"/>
<path d="M86.9902 31L110.965 68.9761L124.95 60.9814" stroke="#B0BABF" stroke-linecap="round" stroke-linejoin="round"/>
<path d="M91.9802 82.0815L90.2632 84.4468C89.3706 85.6763 88.0448 86.5214 86.5534 86.8115C85.062 87.1017 83.5161 86.815 82.2277 86.0098L70.9746 78.9766" stroke="#B0BABF" stroke-width="1.00157" stroke-linecap="round" stroke-linejoin="round"/>
<path d="M86.0353 88.0044L84.2643 90.4443C83.3603 91.6898 82.0283 92.5572 80.5238 92.8809C79.0192 93.2045 77.4482 92.9613 76.112 92.1978L66.9746 86.9766" stroke="#B0BABF" stroke-width="1.00157" stroke-linecap="round" stroke-linejoin="round"/>
<path d="M76.6045 93.0664L74.851 95.7466C74.2355 96.6872 73.3168 97.3885 72.2474 97.7349C71.178 98.0812 70.0223 98.0516 68.9722 97.6504L56.9746 93.0664" stroke="#B0BABF" stroke-width="1.00157" stroke-linejoin="round"/>
<path d="M16.9746 56.9766C16.9746 57.507 16.7639 58.0156 16.3888 58.3906C16.0137 58.7657 15.505 58.9766 14.9746 58.9766C14.4442 58.9766 13.9355 58.7657 13.5604 58.3906C13.1853 58.0156 12.9746 57.507 12.9746 56.9766C12.9746 56.4461 13.1853 55.9376 13.5604 55.5625C13.9355 55.1874 14.4442 54.9766 14.9746 54.9766C15.505 54.9766 16.0137 55.1874 16.3888 55.5625C16.7639 55.9376 16.9746 56.4461 16.9746 56.9766Z" fill="#B0BABF"/>
<path d="M116.975 56.9766C116.975 57.507 116.764 58.0156 116.389 58.3906C116.014 58.7657 115.505 58.9766 114.975 58.9766C114.444 58.9766 113.935 58.7657 113.56 58.3906C113.185 58.0156 112.975 57.507 112.975 56.9766C112.975 56.4461 113.185 55.9376 113.56 55.5625C113.935 55.1874 114.444 54.9766 114.975 54.9766C115.505 54.9766 116.014 55.1874 116.389 55.5625C116.764 55.9376 116.975 56.4461 116.975 56.9766Z" fill="#B0BABF"/>
</svg>
