<svg width="86" height="32" viewBox="0 0 86 32" fill="none" xmlns="http://www.w3.org/2000/svg">
<rect x="0.5" y="0.5" width="85" height="31" rx="5.5" fill="white"/>
<rect x="0.5" y="0.5" width="85" height="31" rx="5.5" stroke="#DDE2E4"/>
<g clip-path="url(#clip0_2689_3284)">
<path fill-rule="evenodd" clip-rule="evenodd" d="M20 15C20.7956 15 21.5587 14.6839 22.1213 14.1213C22.6839 13.5587 23 12.7956 23 12C23 11.2044 22.6839 10.4413 22.1213 9.87868C21.5587 9.31607 20.7956 9 20 9C19.2044 9 18.4413 9.31607 17.8787 9.87868C17.3161 10.4413 17 11.2044 17 12C17 12.7956 17.3161 13.5587 17.8787 14.1213C18.4413 14.6839 19.2044 15 20 15ZM13 24C13 23.0807 13.1811 22.1705 13.5328 21.3212C13.8846 20.4719 14.4002 19.7003 15.0503 19.0503C15.7003 18.4002 16.4719 17.8846 17.3212 17.5328C18.1705 17.1811 19.0807 17 20 17C20.9193 17 21.8295 17.1811 22.6788 17.5328C23.5281 17.8846 24.2997 18.4002 24.9497 19.0503C25.5998 19.7003 26.1154 20.4719 26.4672 21.3212C26.8189 22.1705 27 23.0807 27 24H13Z" fill="#B0BABF"/>
<path d="M41.233 21V10.8182H44.7926C45.5019 10.8182 46.0869 10.9408 46.5476 11.1861C47.0083 11.428 47.3513 11.7545 47.5767 12.1655C47.8021 12.5732 47.9148 13.0256 47.9148 13.5227C47.9148 13.9602 47.8369 14.3215 47.6811 14.6065C47.5286 14.8916 47.3265 15.117 47.0746 15.2827C46.826 15.4484 46.5559 15.571 46.2642 15.6506V15.75C46.5758 15.7699 46.889 15.8793 47.2038 16.0781C47.5187 16.277 47.7822 16.562 47.9943 16.9332C48.2064 17.3045 48.3125 17.7585 48.3125 18.2955C48.3125 18.8059 48.1965 19.2649 47.9645 19.6726C47.7325 20.0803 47.3662 20.4034 46.8658 20.642C46.3653 20.8807 45.714 21 44.9119 21H41.233ZM42.4659 19.9062H44.9119C45.7173 19.9062 46.2891 19.7505 46.6271 19.4389C46.9685 19.1241 47.1392 18.7429 47.1392 18.2955C47.1392 17.9508 47.0514 17.6326 46.8757 17.3409C46.7 17.0459 46.4498 16.8106 46.125 16.6349C45.8002 16.456 45.4157 16.3665 44.9716 16.3665H42.4659V19.9062ZM42.4659 15.2926H44.7528C45.1241 15.2926 45.4588 15.2197 45.7571 15.0739C46.0587 14.928 46.2973 14.7225 46.473 14.4574C46.652 14.1922 46.7415 13.8807 46.7415 13.5227C46.7415 13.0753 46.5857 12.6958 46.2741 12.3842C45.9626 12.0694 45.4688 11.9119 44.7926 11.9119H42.4659V15.2926ZM50.9703 13.3636L52.7999 16.4858L54.6294 13.3636H55.9817L53.5158 17.1818L55.9817 21H54.6294L52.7999 18.0369L50.9703 21H49.6181L52.0442 17.1818L49.6181 13.3636H50.9703ZM60.3597 21.1591C59.6703 21.1591 59.0654 20.995 58.5451 20.6669C58.028 20.3388 57.6237 19.8797 57.332 19.2898C57.0436 18.6998 56.8995 18.0104 56.8995 17.2216C56.8995 16.4261 57.0436 15.7318 57.332 15.1385C57.6237 14.5452 58.028 14.0845 58.5451 13.7564C59.0654 13.4283 59.6703 13.2642 60.3597 13.2642C61.0491 13.2642 61.6523 13.4283 62.1694 13.7564C62.6897 14.0845 63.0941 14.5452 63.3824 15.1385C63.6741 15.7318 63.8199 16.4261 63.8199 17.2216C63.8199 18.0104 63.6741 18.6998 63.3824 19.2898C63.0941 19.8797 62.6897 20.3388 62.1694 20.6669C61.6523 20.995 61.0491 21.1591 60.3597 21.1591ZM60.3597 20.1051C60.8834 20.1051 61.3142 19.9709 61.6523 19.7024C61.9904 19.4339 62.2406 19.081 62.403 18.6435C62.5654 18.206 62.6466 17.732 62.6466 17.2216C62.6466 16.7112 62.5654 16.2356 62.403 15.7947C62.2406 15.3539 61.9904 14.9976 61.6523 14.7259C61.3142 14.4541 60.8834 14.3182 60.3597 14.3182C59.836 14.3182 59.4052 14.4541 59.0671 14.7259C58.729 14.9976 58.4788 15.3539 58.3164 15.7947C58.154 16.2356 58.0728 16.7112 58.0728 17.2216C58.0728 17.732 58.154 18.206 58.3164 18.6435C58.4788 19.081 58.729 19.4339 59.0671 19.7024C59.4052 19.9709 59.836 20.1051 60.3597 20.1051ZM64.7116 23.1875V19.9062H65.348C65.5037 19.7438 65.638 19.5682 65.7507 19.3793C65.8634 19.1903 65.9611 18.9666 66.044 18.7081C66.1302 18.4463 66.2031 18.1281 66.2627 17.7536C66.3224 17.3757 66.3754 16.92 66.4218 16.3864L66.6804 13.3636H71.5326V19.9062H72.7059V23.1875H71.5326V21H65.8849V23.1875H64.7116ZM66.6804 19.9062H70.3593V14.4574H67.7741L67.5752 16.3864C67.4924 17.1851 67.3896 17.8828 67.267 18.4794C67.1444 19.076 66.9488 19.5516 66.6804 19.9062Z" fill="#252C32"/>
</g>
<defs>
<clipPath id="clip0_2689_3284">
<rect width="66" height="24" fill="white" transform="translate(8 4)"/>
</clipPath>
</defs>
</svg>
