<svg width="426" height="44" viewBox="0 0 426 44" fill="none" xmlns="http://www.w3.org/2000/svg">
<rect width="426" height="44" rx="6" fill="#343434"/>
<path fill-rule="evenodd" clip-rule="evenodd" d="M128.5 17C128.765 17 129.02 17.1054 129.207 17.2929C129.395 17.4804 129.5 17.7348 129.5 18V21H132.5C132.765 21 133.02 21.1054 133.207 21.2929C133.395 21.4804 133.5 21.7348 133.5 22C133.5 22.2652 133.395 22.5196 133.207 22.7071C133.02 22.8946 132.765 23 132.5 23H129.5V26C129.5 26.2652 129.395 26.5196 129.207 26.7071C129.02 26.8946 128.765 27 128.5 27C128.235 27 127.98 26.8946 127.793 26.7071C127.605 26.5196 127.5 26.2652 127.5 26V23H124.5C124.235 23 123.98 22.8946 123.793 22.7071C123.605 22.5196 123.5 22.2652 123.5 22C123.5 21.7348 123.605 21.4804 123.793 21.2929C123.98 21.1054 124.235 21 124.5 21H127.5V18C127.5 17.7348 127.605 17.4804 127.793 17.2929C127.98 17.1054 128.235 17 128.5 17Z" fill="white"/>
<g clip-path="url(#clip0_2684_6104)">
<path d="M149.504 27V16.8182H151.349V21.1286H156.067V16.8182H157.916V27H156.067V22.6747H151.349V27H149.504ZM163.09 27.1491C162.344 27.1491 161.698 26.9851 161.151 26.657C160.604 26.3288 160.18 25.8698 159.878 25.2798C159.58 24.6899 159.431 24.0005 159.431 23.2116C159.431 22.4228 159.58 21.7318 159.878 21.1385C160.18 20.5452 160.604 20.0845 161.151 19.7564C161.698 19.4283 162.344 19.2642 163.09 19.2642C163.835 19.2642 164.482 19.4283 165.029 19.7564C165.575 20.0845 165.998 20.5452 166.296 21.1385C166.598 21.7318 166.749 22.4228 166.749 23.2116C166.749 24.0005 166.598 24.6899 166.296 25.2798C165.998 25.8698 165.575 26.3288 165.029 26.657C164.482 26.9851 163.835 27.1491 163.09 27.1491ZM163.1 25.7074C163.504 25.7074 163.842 25.5964 164.114 25.3743C164.386 25.1489 164.588 24.8473 164.72 24.4695C164.856 24.0916 164.924 23.6707 164.924 23.2067C164.924 22.7393 164.856 22.3168 164.72 21.9389C164.588 21.5578 164.386 21.2545 164.114 21.0291C163.842 20.8037 163.504 20.6911 163.1 20.6911C162.685 20.6911 162.341 20.8037 162.066 21.0291C161.794 21.2545 161.59 21.5578 161.454 21.9389C161.321 22.3168 161.255 22.7393 161.255 23.2067C161.255 23.6707 161.321 24.0916 161.454 24.4695C161.59 24.8473 161.794 25.1489 162.066 25.3743C162.341 25.5964 162.685 25.7074 163.1 25.7074ZM168.192 27V19.3636H171.399C172.304 19.3636 173.018 19.5443 173.542 19.9055C174.069 20.2668 174.332 20.7706 174.332 21.4169C174.332 21.8445 174.183 22.1941 173.885 22.4659C173.59 22.7344 173.187 22.915 172.677 23.0078C173.078 23.041 173.429 23.142 173.731 23.3111C174.036 23.4801 174.274 23.7022 174.447 23.9773C174.619 24.2524 174.705 24.5689 174.705 24.9268C174.705 25.3478 174.594 25.714 174.372 26.0256C174.153 26.3338 173.833 26.5741 173.412 26.7464C172.995 26.9155 172.488 27 171.891 27H168.192ZM169.878 25.5831H171.891C172.223 25.5831 172.483 25.5052 172.672 25.3494C172.861 25.1903 172.955 24.9749 172.955 24.7031C172.955 24.3883 172.861 24.1413 172.672 23.9624C172.483 23.7801 172.223 23.6889 171.891 23.6889H169.878V25.5831ZM169.878 22.5256H171.434C171.679 22.5256 171.889 22.4908 172.065 22.4212C172.241 22.3482 172.375 22.2472 172.468 22.1179C172.561 21.9853 172.607 21.8279 172.607 21.6456C172.607 21.3838 172.499 21.1783 172.284 21.0291C172.072 20.88 171.777 20.8054 171.399 20.8054H169.878V22.5256ZM177.324 21.8494H179.576C180.551 21.8494 181.305 22.0864 181.839 22.5604C182.372 23.0343 182.641 23.6558 182.644 24.4247C182.641 24.9252 182.518 25.3693 182.276 25.7571C182.037 26.1449 181.689 26.4498 181.232 26.6719C180.778 26.8906 180.226 27 179.576 27H176.106V19.3636H177.841V25.5234H179.576C179.968 25.5234 180.289 25.424 180.541 25.2251C180.793 25.023 180.919 24.7644 180.919 24.4496C180.919 24.1181 180.793 23.848 180.541 23.6392C180.289 23.4304 179.968 23.326 179.576 23.326H177.324V21.8494ZM183.594 27V19.3636H185.393V27H183.594ZM188.9 24.5639L191.958 19.3636H193.807V27H192.067V21.7947L189.019 27H187.165V19.3636H188.9V24.5639ZM191.465 16.7386H192.813C192.813 17.3187 192.602 17.7893 192.181 18.1506C191.764 18.5085 191.197 18.6875 190.481 18.6875C189.772 18.6875 189.207 18.5085 188.786 18.1506C188.368 17.7893 188.161 17.3187 188.164 16.7386H189.502C189.502 16.9773 189.574 17.1911 189.72 17.38C189.869 17.5656 190.123 17.6584 190.481 17.6584C190.832 17.6584 191.083 17.5656 191.232 17.38C191.384 17.1944 191.462 16.9806 191.465 16.7386ZM198.542 20.8402V19.3636H205.224V20.8402H202.753V27H201.013V20.8402H198.542ZM208.456 27.1541C207.972 27.1541 207.536 27.0679 207.149 26.8956C206.764 26.7199 206.459 26.4614 206.234 26.12C206.012 25.7786 205.901 25.3577 205.901 24.8572C205.901 24.4264 205.98 24.0701 206.139 23.7884C206.298 23.5066 206.515 23.2812 206.791 23.1122C207.066 22.9432 207.376 22.8156 207.72 22.7294C208.068 22.6399 208.428 22.5753 208.799 22.5355C209.247 22.4891 209.609 22.4477 209.888 22.4112C210.166 22.3714 210.368 22.3118 210.494 22.2322C210.624 22.1494 210.688 22.0218 210.688 21.8494V21.8196C210.688 21.4451 210.577 21.1551 210.355 20.9496C210.133 20.7441 209.813 20.6413 209.396 20.6413C208.955 20.6413 208.605 20.7375 208.347 20.9297C208.091 21.1219 207.919 21.349 207.83 21.6108L206.149 21.3722C206.282 20.9081 206.501 20.5204 206.805 20.2088C207.11 19.8939 207.483 19.6586 207.924 19.5028C208.365 19.3438 208.852 19.2642 209.386 19.2642C209.754 19.2642 210.12 19.3073 210.484 19.3935C210.849 19.4796 211.182 19.6222 211.484 19.821C211.785 20.0166 212.027 20.2834 212.21 20.6214C212.395 20.9595 212.488 21.3821 212.488 21.8892V27H210.758V25.951H210.698C210.589 26.1631 210.435 26.362 210.236 26.5476C210.04 26.7299 209.793 26.8774 209.495 26.9901C209.2 27.0994 208.854 27.1541 208.456 27.1541ZM208.923 25.8317C209.285 25.8317 209.598 25.7604 209.863 25.6179C210.128 25.4721 210.332 25.2798 210.474 25.0412C210.62 24.8026 210.693 24.5424 210.693 24.2607V23.3608C210.637 23.4072 210.541 23.4503 210.405 23.4901C210.272 23.5298 210.123 23.5646 209.957 23.5945C209.792 23.6243 209.628 23.6508 209.465 23.674C209.303 23.6972 209.162 23.7171 209.043 23.7337C208.774 23.7701 208.534 23.8298 208.322 23.9126C208.11 23.9955 207.942 24.1115 207.82 24.2607C207.697 24.4065 207.636 24.5954 207.636 24.8274C207.636 25.1589 207.757 25.4091 207.999 25.5781C208.241 25.7472 208.549 25.8317 208.923 25.8317ZM214.214 29.8636V19.3636H215.984V20.6264H216.088C216.181 20.4408 216.312 20.2436 216.481 20.0348C216.65 19.8227 216.878 19.642 217.167 19.4929C217.455 19.3404 217.823 19.2642 218.27 19.2642C218.86 19.2642 219.392 19.415 219.866 19.7166C220.344 20.0149 220.721 20.4574 221 21.044C221.282 21.6274 221.422 22.3433 221.422 23.1918C221.422 24.0303 221.285 24.7429 221.01 25.3295C220.735 25.9162 220.36 26.3636 219.886 26.6719C219.412 26.9801 218.875 27.1342 218.275 27.1342C217.838 27.1342 217.475 27.0613 217.187 26.9155C216.898 26.7696 216.666 26.594 216.491 26.3885C216.318 26.1797 216.184 25.9825 216.088 25.7969H216.013V29.8636H214.214ZM215.979 23.1818C215.979 23.6757 216.048 24.1082 216.187 24.4794C216.33 24.8506 216.534 25.1406 216.799 25.3494C217.067 25.5549 217.392 25.6577 217.773 25.6577C218.171 25.6577 218.504 25.5516 218.773 25.3395C219.041 25.1241 219.243 24.8307 219.379 24.4595C219.518 24.085 219.588 23.6591 219.588 23.1818C219.588 22.7079 219.52 22.2869 219.384 21.919C219.248 21.5511 219.046 21.2628 218.778 21.054C218.509 20.8452 218.174 20.7408 217.773 20.7408C217.389 20.7408 217.062 20.8419 216.794 21.044C216.525 21.2462 216.322 21.5296 216.182 21.8942C216.047 22.2588 215.979 22.688 215.979 23.1818ZM224.615 24.5639L227.672 19.3636H229.522V27H227.782V21.7947L224.734 27H222.88V19.3636H224.615V24.5639ZM234.751 29.5952V16.8182H236.556V29.5952H234.751ZM234.751 27.1491C234.191 27.1491 233.679 27.0547 233.215 26.8658C232.751 26.6768 232.35 26.4084 232.012 26.0604C231.677 25.7124 231.417 25.2981 231.231 24.8175C231.049 24.3336 230.958 23.7983 230.958 23.2116C230.958 22.625 231.049 22.0897 231.231 21.6058C231.417 21.1219 231.677 20.706 232.012 20.358C232.35 20.0066 232.751 19.7365 233.215 19.5476C233.679 19.3587 234.191 19.2642 234.751 19.2642H235.134V27.1491H234.751ZM234.751 25.6974H234.975V20.7159H234.751C234.433 20.7159 234.151 20.7822 233.906 20.9148C233.664 21.044 233.46 21.2247 233.294 21.4567C233.132 21.6854 233.008 21.9505 232.922 22.2521C232.839 22.5504 232.797 22.8703 232.797 23.2116C232.797 23.6657 232.872 24.0817 233.021 24.4595C233.17 24.834 233.389 25.134 233.677 25.3594C233.969 25.5848 234.327 25.6974 234.751 25.6974ZM236.556 27.1491H236.173V19.2642H236.556C237.116 19.2642 237.628 19.3587 238.092 19.5476C238.556 19.7365 238.955 20.0066 239.29 20.358C239.628 20.706 239.888 21.1219 240.071 21.6058C240.256 22.0897 240.349 22.625 240.349 23.2116C240.349 23.7983 240.256 24.3336 240.071 24.8175C239.888 25.2981 239.628 25.7124 239.29 26.0604C238.955 26.4084 238.556 26.6768 238.092 26.8658C237.628 27.0547 237.116 27.1491 236.556 27.1491ZM236.556 25.6974C236.877 25.6974 237.159 25.6328 237.401 25.5036C237.643 25.3743 237.845 25.1953 238.007 24.9666C238.173 24.7379 238.297 24.4744 238.38 24.1761C238.463 23.8745 238.505 23.553 238.505 23.2116C238.505 22.7576 238.432 22.3416 238.286 21.9638C238.14 21.5859 237.921 21.2843 237.63 21.0589C237.341 20.8303 236.983 20.7159 236.556 20.7159H236.332V25.6974H236.556ZM247.029 22.4361V23.9126H242.962V22.4361H247.029ZM243.519 19.3636V27H241.784V19.3636H243.519ZM248.207 19.3636V27H246.477V19.3636H248.207ZM251.162 21.8494H253.414C254.389 21.8494 255.143 22.0864 255.676 22.5604C256.21 23.0343 256.478 23.6558 256.482 24.4247C256.478 24.9252 256.356 25.3693 256.114 25.7571C255.875 26.1449 255.527 26.4498 255.07 26.6719C254.616 26.8906 254.064 27 253.414 27H249.944V19.3636H251.679V25.5234H253.414C253.805 25.5234 254.127 25.424 254.379 25.2251C254.631 25.023 254.757 24.7644 254.757 24.4496C254.757 24.1181 254.631 23.848 254.379 23.6392C254.127 23.4304 253.805 23.326 253.414 23.326H251.162V21.8494ZM257.431 27V19.3636H259.231V27H257.431ZM262.738 24.5639L265.795 19.3636H267.645V27H265.905V21.7947L262.857 27H261.003V19.3636H262.738V24.5639ZM265.303 16.7386H266.65C266.65 17.3187 266.44 17.7893 266.019 18.1506C265.601 18.5085 265.035 18.6875 264.319 18.6875C263.609 18.6875 263.044 18.5085 262.623 18.1506C262.206 17.7893 261.999 17.3187 262.002 16.7386H263.339C263.339 16.9773 263.412 17.1911 263.558 17.38C263.707 17.5656 263.961 17.6584 264.319 17.6584C264.67 17.6584 264.92 17.5656 265.069 17.38C265.222 17.1944 265.3 16.9806 265.303 16.7386ZM272.798 27V19.3636H279.246V27H277.511V20.8402H274.518V27H272.798ZM280.485 27L280.475 25.5185H280.739C280.938 25.5185 281.105 25.4737 281.241 25.3842C281.377 25.2947 281.49 25.1456 281.579 24.9368C281.669 24.7247 281.738 24.4396 281.788 24.0817C281.838 23.7237 281.872 23.2779 281.892 22.7443L282.027 19.3636H287.595V27H285.855V20.8402H283.662L283.543 23.3011C283.513 23.9375 283.442 24.4893 283.329 24.9567C283.22 25.4207 283.064 25.8035 282.862 26.1051C282.663 26.4067 282.413 26.6321 282.111 26.7812C281.809 26.9271 281.453 27 281.042 27H280.485ZM291.52 27.1541C291.036 27.1541 290.601 27.0679 290.213 26.8956C289.828 26.7199 289.523 26.4614 289.298 26.12C289.076 25.7786 288.965 25.3577 288.965 24.8572C288.965 24.4264 289.044 24.0701 289.204 23.7884C289.363 23.5066 289.58 23.2812 289.855 23.1122C290.13 22.9432 290.44 22.8156 290.785 22.7294C291.133 22.6399 291.492 22.5753 291.863 22.5355C292.311 22.4891 292.674 22.4477 292.952 22.4112C293.231 22.3714 293.433 22.3118 293.559 22.2322C293.688 22.1494 293.753 22.0218 293.753 21.8494V21.8196C293.753 21.4451 293.642 21.1551 293.419 20.9496C293.197 20.7441 292.878 20.6413 292.46 20.6413C292.019 20.6413 291.669 20.7375 291.411 20.9297C291.156 21.1219 290.983 21.349 290.894 21.6108L289.214 21.3722C289.346 20.9081 289.565 20.5204 289.87 20.2088C290.175 19.8939 290.548 19.6586 290.988 19.5028C291.429 19.3438 291.916 19.2642 292.45 19.2642C292.818 19.2642 293.184 19.3073 293.549 19.3935C293.913 19.4796 294.246 19.6222 294.548 19.821C294.85 20.0166 295.092 20.2834 295.274 20.6214C295.459 20.9595 295.552 21.3821 295.552 21.8892V27H293.822V25.951H293.763C293.653 26.1631 293.499 26.362 293.3 26.5476C293.105 26.7299 292.858 26.8774 292.559 26.9901C292.264 27.0994 291.918 27.1541 291.52 27.1541ZM291.988 25.8317C292.349 25.8317 292.662 25.7604 292.927 25.6179C293.192 25.4721 293.396 25.2798 293.539 25.0412C293.685 24.8026 293.758 24.5424 293.758 24.2607V23.3608C293.701 23.4072 293.605 23.4503 293.469 23.4901C293.337 23.5298 293.187 23.5646 293.022 23.5945C292.856 23.6243 292.692 23.6508 292.53 23.674C292.367 23.6972 292.226 23.7171 292.107 23.7337C291.839 23.7701 291.598 23.8298 291.386 23.9126C291.174 23.9955 291.007 24.1115 290.884 24.2607C290.761 24.4065 290.7 24.5954 290.7 24.8274C290.7 25.1589 290.821 25.4091 291.063 25.5781C291.305 25.7472 291.613 25.8317 291.988 25.8317ZM302.523 22.4361V23.9126H298.456V22.4361H302.523ZM299.013 19.3636V27H297.278V19.3636H299.013ZM303.701 19.3636V27H301.971V19.3636H303.701Z" fill="#F6F8F9"/>
</g>
<defs>
<clipPath id="clip0_2684_6104">
<rect width="157" height="24" fill="white" transform="translate(148.5 10)"/>
</clipPath>
</defs>
</svg>
