<svg width="116" height="32" viewBox="0 0 116 32" fill="none" xmlns="http://www.w3.org/2000/svg">
<rect width="116" height="32" rx="6" fill="#343434"/>
<g clip-path="url(#clip0_3980_1802)">
<path fill-rule="evenodd" clip-rule="evenodd" d="M20 11C20.2652 11 20.5196 11.1054 20.7071 11.2929C20.8946 11.4804 21 11.7348 21 12V15H24C24.2652 15 24.5196 15.1054 24.7071 15.2929C24.8946 15.4804 25 15.7348 25 16C25 16.2652 24.8946 16.5196 24.7071 16.7071C24.5196 16.8946 24.2652 17 24 17H21V20C21 20.2652 20.8946 20.5196 20.7071 20.7071C20.5196 20.8946 20.2652 21 20 21C19.7348 21 19.4804 20.8946 19.2929 20.7071C19.1054 20.5196 19 20.2652 19 20V17H16C15.7348 17 15.4804 16.8946 15.2929 16.7071C15.1054 16.5196 15 16.2652 15 16C15 15.7348 15.1054 15.4804 15.2929 15.2929C15.4804 15.1054 15.7348 15 16 15H19V12C19 11.7348 19.1054 11.4804 19.2929 11.2929C19.4804 11.1054 19.7348 11 20 11V11Z" fill="white"/>
<path d="M44.5589 21.1392C43.843 21.1392 43.2067 21.0166 42.6499 20.7713C42.0964 20.526 41.6589 20.1847 41.3374 19.7472C41.0159 19.3097 40.8452 18.8042 40.8253 18.2308H42.6946C42.7112 18.5059 42.8023 18.7462 42.968 18.9517C43.1338 19.1539 43.3542 19.3113 43.6293 19.424C43.9044 19.5367 44.2126 19.593 44.554 19.593C44.9186 19.593 45.2417 19.5301 45.5234 19.4041C45.8052 19.2749 46.0256 19.0959 46.1847 18.8672C46.3438 18.6385 46.4216 18.375 46.4183 18.0767C46.4216 17.7685 46.3421 17.4967 46.1797 17.2614C46.0173 17.026 45.782 16.8421 45.4737 16.7095C45.1688 16.5769 44.8009 16.5107 44.37 16.5107H43.4702V15.0888H44.37C44.7247 15.0888 45.0346 15.0275 45.2997 14.9048C45.5682 14.7822 45.7786 14.6098 45.9311 14.3878C46.0836 14.1624 46.1581 13.9022 46.1548 13.6072C46.1581 13.3189 46.0935 13.0687 45.9609 12.8565C45.8317 12.6411 45.6477 12.4737 45.4091 12.3544C45.1738 12.2351 44.897 12.1754 44.5788 12.1754C44.2673 12.1754 43.9789 12.2318 43.7138 12.3445C43.4486 12.4571 43.2348 12.6179 43.0724 12.8267C42.91 13.0322 42.8239 13.2775 42.8139 13.5625H41.0391C41.0523 12.9924 41.2164 12.492 41.5312 12.0611C41.8494 11.6269 42.2737 11.2888 42.804 11.0469C43.3343 10.8016 43.9292 10.679 44.5888 10.679C45.2682 10.679 45.8582 10.8066 46.3587 11.0618C46.8625 11.3137 47.2519 11.6534 47.527 12.081C47.8021 12.5085 47.9396 12.9808 47.9396 13.4979C47.9429 14.0713 47.7739 14.5518 47.4325 14.9396C47.0945 15.3274 46.6503 15.581 46.1001 15.7003V15.7798C46.8161 15.8793 47.3646 16.1444 47.7457 16.5753C48.1302 17.0028 48.3208 17.5348 48.3175 18.1712C48.3175 18.7412 48.1551 19.2517 47.8303 19.7024C47.5088 20.1499 47.0646 20.5012 46.4979 20.7564C45.9344 21.0116 45.2881 21.1392 44.5589 21.1392ZM52.1573 21.1541C51.6734 21.1541 51.2376 21.0679 50.8498 20.8956C50.4653 20.7199 50.1604 20.4614 49.935 20.12C49.7129 19.7786 49.6019 19.3577 49.6019 18.8572C49.6019 18.4264 49.6814 18.0701 49.8405 17.7884C49.9996 17.5066 50.2167 17.2812 50.4918 17.1122C50.7669 16.9432 51.0768 16.8156 51.4215 16.7294C51.7695 16.6399 52.1291 16.5753 52.5003 16.5355C52.9478 16.4891 53.3107 16.4477 53.5891 16.4112C53.8675 16.3714 54.0697 16.3118 54.1957 16.2322C54.3249 16.1494 54.3895 16.0218 54.3895 15.8494V15.8196C54.3895 15.4451 54.2785 15.1551 54.0564 14.9496C53.8344 14.7441 53.5145 14.6413 53.0969 14.6413C52.6561 14.6413 52.3064 14.7375 52.0479 14.9297C51.7927 15.1219 51.6204 15.349 51.5309 15.6108L49.8505 15.3722C49.9831 14.9081 50.2018 14.5204 50.5067 14.2088C50.8117 13.8939 51.1845 13.6586 51.6253 13.5028C52.0662 13.3438 52.5534 13.2642 53.087 13.2642C53.4549 13.2642 53.8211 13.3073 54.1857 13.3935C54.5503 13.4796 54.8834 13.6222 55.185 13.821C55.4866 14.0166 55.7286 14.2834 55.9109 14.6214C56.0965 14.9595 56.1893 15.3821 56.1893 15.8892V21H54.4591V19.951H54.3995C54.2901 20.1631 54.136 20.362 53.9371 20.5476C53.7416 20.7299 53.4947 20.8774 53.1964 20.9901C52.9014 21.0994 52.555 21.1541 52.1573 21.1541ZM52.6246 19.8317C52.9859 19.8317 53.2991 19.7604 53.5643 19.6179C53.8294 19.4721 54.0332 19.2798 54.1758 19.0412C54.3216 18.8026 54.3945 18.5424 54.3945 18.2607V17.3608C54.3382 17.4072 54.2421 17.4503 54.1062 17.4901C53.9736 17.5298 53.8244 17.5646 53.6587 17.5945C53.493 17.6243 53.3289 17.6508 53.1665 17.674C53.0041 17.6972 52.8633 17.7171 52.7439 17.7337C52.4755 17.7701 52.2352 17.8298 52.0231 17.9126C51.8109 17.9955 51.6436 18.1115 51.5209 18.2607C51.3983 18.4065 51.337 18.5954 51.337 18.8274C51.337 19.1589 51.458 19.4091 51.6999 19.5781C51.9419 19.7472 52.2501 19.8317 52.6246 19.8317ZM57.9149 21V13.3636H59.7146V16.446H60.3709L62.6678 13.3636H64.8354L62.0065 17.1122L64.8652 21H62.6876L60.5946 18.1214H59.7146V21H57.9149ZM67.9991 21.1541C67.5152 21.1541 67.0793 21.0679 66.6915 20.8956C66.3071 20.7199 66.0021 20.4614 65.7768 20.12C65.5547 19.7786 65.4437 19.3577 65.4437 18.8572C65.4437 18.4264 65.5232 18.0701 65.6823 17.7884C65.8414 17.5066 66.0585 17.2812 66.3336 17.1122C66.6087 16.9432 66.9186 16.8156 67.2633 16.7294C67.6113 16.6399 67.9709 16.5753 68.3421 16.5355C68.7895 16.4891 69.1525 16.4477 69.4309 16.4112C69.7093 16.3714 69.9115 16.3118 70.0374 16.2322C70.1667 16.1494 70.2313 16.0218 70.2313 15.8494V15.8196C70.2313 15.4451 70.1203 15.1551 69.8982 14.9496C69.6761 14.7441 69.3563 14.6413 68.9387 14.6413C68.4979 14.6413 68.1482 14.7375 67.8897 14.9297C67.6345 15.1219 67.4621 15.349 67.3726 15.6108L65.6922 15.3722C65.8248 14.9081 66.0436 14.5204 66.3485 14.2088C66.6534 13.8939 67.0263 13.6586 67.4671 13.5028C67.9079 13.3438 68.3951 13.2642 68.9288 13.2642C69.2967 13.2642 69.6629 13.3073 70.0275 13.3935C70.3921 13.4796 70.7252 13.6222 71.0268 13.821C71.3284 14.0166 71.5703 14.2834 71.7526 14.6214C71.9382 14.9595 72.031 15.3821 72.031 15.8892V21H70.3009V19.951H70.2413C70.1319 20.1631 69.9778 20.362 69.7789 20.5476C69.5833 20.7299 69.3364 20.8774 69.0381 20.9901C68.7431 21.0994 68.3968 21.1541 67.9991 21.1541ZM68.4664 19.8317C68.8277 19.8317 69.1409 19.7604 69.406 19.6179C69.6712 19.4721 69.875 19.2798 70.0175 19.0412C70.1634 18.8026 70.2363 18.5424 70.2363 18.2607V17.3608C70.1799 17.4072 70.0838 17.4503 69.9479 17.4901C69.8154 17.5298 69.6662 17.5646 69.5005 17.5945C69.3348 17.6243 69.1707 17.6508 69.0083 17.674C68.8459 17.6972 68.705 17.7171 68.5857 17.7337C68.3172 17.7701 68.077 17.8298 67.8648 17.9126C67.6527 17.9955 67.4853 18.1115 67.3627 18.2607C67.2401 18.4065 67.1788 18.5954 67.1788 18.8274C67.1788 19.1589 67.2997 19.4091 67.5417 19.5781C67.7836 19.7472 68.0919 19.8317 68.4664 19.8317ZM73.3341 18.907H75.1189C75.1355 19.192 75.2631 19.4124 75.5017 19.5682C75.7404 19.724 76.0502 19.8018 76.4314 19.8018C76.8192 19.8018 77.1457 19.7173 77.4108 19.5483C77.6793 19.3759 77.8135 19.1158 77.8135 18.7678C77.8135 18.5623 77.7621 18.3816 77.6594 18.2259C77.5566 18.0668 77.4125 17.9441 77.2269 17.858C77.0413 17.7718 76.8225 17.7287 76.5706 17.7287H75.4023V16.451H76.5706C76.9451 16.451 77.2285 16.3648 77.4207 16.1925C77.6163 16.0201 77.7141 15.803 77.7141 15.5412C77.7141 15.2595 77.6113 15.0308 77.4058 14.8551C77.2037 14.6795 76.9236 14.5916 76.5656 14.5916C76.2077 14.5916 75.9094 14.6728 75.6707 14.8352C75.4354 14.9976 75.3128 15.2064 75.3029 15.4616H73.528C73.5346 15.0175 73.6672 14.6314 73.9257 14.3033C74.1876 13.9751 74.5389 13.7199 74.9797 13.5376C75.4238 13.3554 75.9243 13.2642 76.4811 13.2642C77.0777 13.2642 77.5931 13.3537 78.0273 13.5327C78.4615 13.7116 78.7962 13.9619 79.0315 14.2834C79.2669 14.6016 79.3845 14.9761 79.3845 15.407C79.3845 15.8213 79.2553 16.1643 78.9967 16.4361C78.7382 16.7045 78.3902 16.8968 77.9527 17.0128V17.0923C78.2543 17.1089 78.5261 17.1951 78.768 17.3509C79.01 17.5033 79.2022 17.7105 79.3448 17.9723C79.4873 18.2341 79.5585 18.5374 79.5585 18.8821C79.5585 19.3494 79.4243 19.7538 79.1558 20.0952C78.8874 20.4332 78.5178 20.6934 78.0472 20.8757C77.5798 21.058 77.0446 21.1491 76.4413 21.1491C75.8547 21.1491 75.3294 21.0613 74.8654 20.8857C74.4047 20.7067 74.0384 20.4498 73.7666 20.1151C73.4948 19.7803 73.3507 19.3776 73.3341 18.907ZM83.0889 21.1541C82.605 21.1541 82.1691 21.0679 81.7814 20.8956C81.3969 20.7199 81.092 20.4614 80.8666 20.12C80.6445 19.7786 80.5335 19.3577 80.5335 18.8572C80.5335 18.4264 80.613 18.0701 80.7721 17.7884C80.9312 17.5066 81.1483 17.2812 81.4234 17.1122C81.6985 16.9432 82.0084 16.8156 82.3531 16.7294C82.7011 16.6399 83.0607 16.5753 83.4319 16.5355C83.8794 16.4891 84.2423 16.4477 84.5207 16.4112C84.7991 16.3714 85.0013 16.3118 85.1272 16.2322C85.2565 16.1494 85.3211 16.0218 85.3211 15.8494V15.8196C85.3211 15.4451 85.2101 15.1551 84.988 14.9496C84.766 14.7441 84.4461 14.6413 84.0285 14.6413C83.5877 14.6413 83.238 14.7375 82.9795 14.9297C82.7243 15.1219 82.5519 15.349 82.4625 15.6108L80.7821 15.3722C80.9146 14.9081 81.1334 14.5204 81.4383 14.2088C81.7432 13.8939 82.1161 13.6586 82.5569 13.5028C82.9977 13.3438 83.4849 13.2642 84.0186 13.2642C84.3865 13.2642 84.7527 13.3073 85.1173 13.3935C85.4819 13.4796 85.815 13.6222 86.1166 13.821C86.4182 14.0166 86.6601 14.2834 86.8424 14.6214C87.028 14.9595 87.1208 15.3821 87.1208 15.8892V21H85.3907V19.951H85.3311C85.2217 20.1631 85.0676 20.362 84.8687 20.5476C84.6732 20.7299 84.4262 20.8774 84.1279 20.9901C83.833 21.0994 83.4866 21.1541 83.0889 21.1541ZM83.5562 19.8317C83.9175 19.8317 84.2307 19.7604 84.4958 19.6179C84.761 19.4721 84.9648 19.2798 85.1073 19.0412C85.2532 18.8026 85.3261 18.5424 85.3261 18.2607V17.3608C85.2698 17.4072 85.1736 17.4503 85.0377 17.4901C84.9052 17.5298 84.756 17.5646 84.5903 17.5945C84.4246 17.6243 84.2605 17.6508 84.0981 17.674C83.9357 17.6972 83.7948 17.7171 83.6755 17.7337C83.4071 17.7701 83.1668 17.8298 82.9546 17.9126C82.7425 17.9955 82.5751 18.1115 82.4525 18.2607C82.3299 18.4065 82.2686 18.5954 82.2686 18.8274C82.2686 19.1589 82.3895 19.4091 82.6315 19.5781C82.8734 19.7472 83.1817 19.8317 83.5562 19.8317ZM87.9914 14.8402V13.3636H94.6732V14.8402H92.2023V21H90.4623V14.8402H87.9914ZM97.2403 15.8494H99.4924C100.467 15.8494 101.221 16.0864 101.755 16.5604C102.288 17.0343 102.557 17.6558 102.56 18.4247C102.557 18.9252 102.434 19.3693 102.192 19.7571C101.953 20.1449 101.605 20.4498 101.148 20.6719C100.694 20.8906 100.142 21 99.4924 21H96.0223V13.3636H97.7573V19.5234H99.4924C99.8835 19.5234 100.205 19.424 100.457 19.2251C100.709 19.023 100.835 18.7644 100.835 18.4496C100.835 18.1181 100.709 17.848 100.457 17.6392C100.205 17.4304 99.8835 17.326 99.4924 17.326H97.2403V15.8494Z" fill="#F6F8F9"/>
</g>
<defs>
<clipPath id="clip0_3980_1802">
<rect width="96" height="24" fill="white" transform="translate(8 4)"/>
</clipPath>
</defs>
</svg>
