<svg width="40" height="42" viewBox="0 0 40 42" fill="none" xmlns="http://www.w3.org/2000/svg">
<path d="M39.1899 16.6973C38.4066 15.3036 37.1316 13.4756 36.1297 12.1363C33.2153 14.3444 29.9366 13.8557 26.2753 12.824C29.2626 12.6973 31.8492 10.4892 32.3592 7.44857C32.9239 3.95542 30.5377 0.66136 27.0221 0.0821848C23.5066 -0.478891 20.1915 1.89211 19.6086 5.38526C19.0439 8.87841 21.4301 12.1725 24.9456 12.7516C24.9638 12.7516 24.9638 12.7516 24.982 12.7516C25.7835 14.8874 24.8363 17.0593 24.0531 18.3805C23.962 15.4484 23.0877 12.0277 19.0439 10.7969C18.8618 10.7426 18.6796 10.6883 18.5157 10.634C13.9255 9.69287 8.91629 9.80147 3.46996 13.8195C3.83426 15.195 4.30786 17.3307 4.76323 18.7787C8.53377 17.3127 10.7742 17.747 13.1604 19.7741C11.5939 26.0003 10.5192 29.0771 2.01275 27.9369C1.75773 29.3848 1.21128 31.6834 0.810547 33.1495C7.93267 35.9006 15.8198 35.9911 20.2097 32.4617C23.6341 34.0363 27.2954 34.9775 27.4593 42C29.6269 42 31.5941 42 34.4904 42C35.0004 28.9505 30.0459 26.0727 24.6542 22.1451C27.6232 22.8691 34.3082 23.7017 39.1899 16.6973Z" fill="url(#paint0_linear_2689_3391)"/>
<defs>
<linearGradient id="paint0_linear_2689_3391" x1="16.941" y1="-1.12967e-05" x2="36.9309" y2="0.875634" gradientUnits="userSpaceOnUse">
<stop stop-color="#D1EA7A"/>
<stop offset="1" stop-color="#BED962"/>
</linearGradient>
</defs>
</svg>
