<svg width="33" height="142" viewBox="0 0 33 142" fill="none" xmlns="http://www.w3.org/2000/svg">
<path d="M0.333333 3C0.333333 4.47276 1.52724 5.66667 3 5.66667C4.47276 5.66667 5.66667 4.47276 5.66667 3C5.66667 1.52724 4.47276 0.333333 3 0.333333C1.52724 0.333333 0.333333 1.52724 0.333333 3ZM3 139L8 141.887V136.113L3 139ZM3 3.5H4V2.5H3V3.5ZM6 3.5H8V2.5H6V3.5ZM10 3.5H12V2.5H10V3.5ZM14 3.5H16V2.5H14V3.5ZM18 3.5H20V2.5H18V3.5ZM22 3.5H24V2.5H22V3.5ZM26 3.5H27V2.5H26V3.5ZM27 3.5C27.3012 3.5 27.595 3.52952 27.8788 3.58566L28.0728 2.60468C27.7255 2.53595 27.3667 2.5 27 2.5V3.5ZM29.4999 4.25766C29.9909 4.58634 30.4137 5.00913 30.7423 5.50008L31.5733 4.94376C31.1719 4.3442 30.6558 3.82809 30.0562 3.42669L29.4999 4.25766ZM31.4143 7.12122C31.4705 7.40504 31.5 7.69883 31.5 8H32.5C32.5 7.63332 32.464 7.27454 32.3953 6.92716L31.4143 7.12122ZM31.5 8V8.98438H32.5V8H31.5ZM31.5 10.9531V12.9219H32.5V10.9531H31.5ZM31.5 14.8906V16.8594H32.5V14.8906H31.5ZM31.5 18.8281V20.7969H32.5V18.8281H31.5ZM31.5 22.7656V24.7344H32.5V22.7656H31.5ZM31.5 26.7031V28.6719H32.5V26.7031H31.5ZM31.5 30.6406V32.6094H32.5V30.6406H31.5ZM31.5 34.5781V36.5469H32.5V34.5781H31.5ZM31.5 38.5156V40.4844H32.5V38.5156H31.5ZM31.5 42.4531V44.4219H32.5V42.4531H31.5ZM31.5 46.3906V48.3594H32.5V46.3906H31.5ZM31.5 50.3281V52.2969H32.5V50.3281H31.5ZM31.5 54.2656V56.2344H32.5V54.2656H31.5ZM31.5 58.2031V60.1719H32.5V58.2031H31.5ZM31.5 62.1406V64.1094H32.5V62.1406H31.5ZM31.5 66.0781V68.0469H32.5V66.0781H31.5ZM31.5 70.0156V71.9844H32.5V70.0156H31.5ZM31.5 73.9531V75.9219H32.5V73.9531H31.5ZM31.5 77.8906V79.8594H32.5V77.8906H31.5ZM31.5 81.8281V83.7969H32.5V81.8281H31.5ZM31.5 85.7656V87.7344H32.5V85.7656H31.5ZM31.5 89.7031V91.6719H32.5V89.7031H31.5ZM31.5 93.6406V95.6094H32.5V93.6406H31.5ZM31.5 97.5781V99.5469H32.5V97.5781H31.5ZM31.5 101.516V103.484H32.5V101.516H31.5ZM31.5 105.453V107.422H32.5V105.453H31.5ZM31.5 109.391V111.359H32.5V109.391H31.5ZM31.5 113.328V115.297H32.5V113.328H31.5ZM31.5 117.266V119.234H32.5V117.266H31.5ZM31.5 121.203V123.172H32.5V121.203H31.5ZM31.5 125.141V127.109H32.5V125.141H31.5ZM31.5 129.078V131.047H32.5V129.078H31.5ZM31.5 133.016V134H32.5V133.016H31.5ZM31.5 134C31.5 134.301 31.4705 134.595 31.4143 134.879L32.3953 135.073C32.464 134.725 32.5 134.367 32.5 134H31.5ZM30.7423 136.5C30.4137 136.991 29.9909 137.414 29.4999 137.742L30.0562 138.573C30.6558 138.172 31.1719 137.656 31.5733 137.056L30.7423 136.5ZM27.8788 138.414C27.595 138.47 27.3012 138.5 27 138.5V139.5C27.3667 139.5 27.7255 139.464 28.0728 139.395L27.8788 138.414ZM27 138.5H26V139.5H27V138.5ZM24 138.5H22V139.5H24V138.5ZM20 138.5H18V139.5H20V138.5ZM16 138.5H14V139.5H16V138.5ZM12 138.5H10V139.5H12V138.5ZM8 138.5H6V139.5H8V138.5Z" fill="#243757"/>
</svg>
