<svg width="32" height="32" viewBox="0 0 32 32" fill="none" xmlns="http://www.w3.org/2000/svg">
<path d="M16 26C14.6333 26 13.3417 25.7373 12.125 25.212C10.9083 24.6867 9.846 23.97 8.938 23.062C8.02933 22.154 7.31267 21.0917 6.788 19.875C6.26333 18.6583 6.00067 17.3667 6 16C6 14.6167 6.26267 13.321 6.788 12.113C7.31333 10.905 8.03 9.84667 8.938 8.938C9.846 8.02933 10.908 7.31267 12.124 6.788C13.34 6.26333 14.632 6.00067 16 6C17.3833 6 18.6793 6.26267 19.888 6.788C21.0967 7.31333 22.1547 8.03 23.062 8.938C23.9707 9.846 24.6873 10.9043 25.212 12.113C25.7367 13.3217 25.9993 14.6173 26 16C26 17.3667 25.7373 18.6583 25.212 19.875C24.6867 21.0917 23.97 22.1543 23.062 23.063C22.154 23.971 21.0957 24.6877 19.887 25.213C18.6783 25.7383 17.3827 26.0007 16 26ZM16 23.95C16.4333 23.35 16.8083 22.725 17.125 22.075C17.4417 21.425 17.7 20.7333 17.9 20H14.1C14.3 20.7333 14.5583 21.425 14.875 22.075C15.1917 22.725 15.5667 23.35 16 23.95ZM13.4 23.55C13.1 23 12.8377 22.429 12.613 21.837C12.3883 21.245 12.2007 20.6327 12.05 20H9.1C9.58333 20.8333 10.1877 21.5583 10.913 22.175C11.6383 22.7917 12.4673 23.25 13.4 23.55ZM18.6 23.55C19.5333 23.25 20.3627 22.7917 21.088 22.175C21.8133 21.5583 22.4173 20.8333 22.9 20H19.95C19.8 20.6333 19.6127 21.246 19.388 21.838C19.1633 22.43 18.9007 23.0007 18.6 23.55ZM8.25 18H11.65C11.6 17.6667 11.5627 17.3377 11.538 17.013C11.5133 16.6883 11.5007 16.3507 11.5 16C11.5 15.65 11.5127 15.3127 11.538 14.988C11.5633 14.6633 11.6007 14.334 11.65 14H8.25C8.16667 14.3333 8.10433 14.6627 8.063 14.988C8.02167 15.3133 8.00067 15.6507 8 16C8 16.35 8.021 16.6877 8.063 17.013C8.105 17.3383 8.16733 17.6673 8.25 18ZM13.65 18H18.35C18.4 17.6667 18.4377 17.3377 18.463 17.013C18.4883 16.6883 18.5007 16.3507 18.5 16C18.5 15.65 18.4873 15.3127 18.462 14.988C18.4367 14.6633 18.3993 14.334 18.35 14H13.65C13.6 14.3333 13.5627 14.6627 13.538 14.988C13.5133 15.3133 13.5007 15.6507 13.5 16C13.5 16.35 13.5127 16.6877 13.538 17.013C13.5633 17.3383 13.6007 17.6673 13.65 18ZM20.35 18H23.75C23.8333 17.6667 23.896 17.3377 23.938 17.013C23.98 16.6883 24.0007 16.3507 24 16C24 15.65 23.9793 15.3127 23.938 14.988C23.8967 14.6633 23.834 14.334 23.75 14H20.35C20.4 14.3333 20.4377 14.6627 20.463 14.988C20.4883 15.3133 20.5007 15.6507 20.5 16C20.5 16.35 20.4873 16.6877 20.462 17.013C20.4367 17.3383 20.3993 17.6673 20.35 18ZM19.95 12H22.9C22.4167 11.1667 21.8127 10.4417 21.088 9.825C20.3633 9.20833 19.534 8.75 18.6 8.45C18.9 9 19.1627 9.571 19.388 10.163C19.6133 10.755 19.8007 11.3673 19.95 12ZM14.1 12H17.9C17.7 11.2667 17.4417 10.575 17.125 9.925C16.8083 9.275 16.4333 8.65 16 8.05C15.5667 8.65 15.1917 9.275 14.875 9.925C14.5583 10.575 14.3 11.2667 14.1 12ZM9.1 12H12.05C12.2 11.3667 12.3877 10.754 12.613 10.162C12.8383 9.57 13.1007 8.99933 13.4 8.45C12.4667 8.75 11.6373 9.20833 10.912 9.825C10.1867 10.4417 9.58267 11.1667 9.1 12Z" fill="#B0BABF"/>
</svg>
